<mxfile host="Electron" modified="2023-12-26T16:56:37.234Z" agent="Mozilla/5.0 (Macintosh; Intel Mac OS X 10_15_7) AppleWebKit/537.36 (KHTML, like Gecko) draw.io/22.1.11 Chrome/114.0.5735.289 Electron/25.9.8 Safari/537.36" etag="pYWvPwJ1I51HbtRe4gsN" version="22.1.11" type="device">
  <diagram name="페이지-1" id="pR80SiTbmWJ1J5_HTTQd">
    <mxGraphModel dx="617" dy="865" grid="1" gridSize="10" guides="1" tooltips="1" connect="1" arrows="1" fold="1" page="1" pageScale="1" pageWidth="827" pageHeight="1169" math="0" shadow="0">
      <root>
        <mxCell id="0" />
        <mxCell id="1" parent="0" />
        <mxCell id="ZSTiKY09LtlX5tefn-ia-1" value="dp[31][901]" style="rounded=0;whiteSpace=wrap;html=1;" vertex="1" parent="1">
          <mxGeometry x="100" y="210" width="120" height="60" as="geometry" />
        </mxCell>
        <mxCell id="ZSTiKY09LtlX5tefn-ia-5" value="DP(int n, int k, int target)" style="swimlane;fontStyle=0;childLayout=stackLayout;horizontal=1;startSize=30;horizontalStack=0;resizeParent=1;resizeParentMax=0;resizeLast=0;collapsible=1;marginBottom=0;whiteSpace=wrap;html=1;" vertex="1" parent="1">
          <mxGeometry x="100" y="370" width="140" height="90" as="geometry" />
        </mxCell>
        <mxCell id="ZSTiKY09LtlX5tefn-ia-7" value="int dp" style="text;strokeColor=none;fillColor=none;align=left;verticalAlign=middle;spacingLeft=4;spacingRight=4;overflow=hidden;points=[[0,0.5],[1,0.5]];portConstraint=eastwest;rotatable=0;whiteSpace=wrap;html=1;" vertex="1" parent="ZSTiKY09LtlX5tefn-ia-5">
          <mxGeometry y="30" width="140" height="30" as="geometry" />
        </mxCell>
        <mxCell id="ZSTiKY09LtlX5tefn-ia-8" value="int res" style="text;strokeColor=none;fillColor=none;align=left;verticalAlign=middle;spacingLeft=4;spacingRight=4;overflow=hidden;points=[[0,0.5],[1,0.5]];portConstraint=eastwest;rotatable=0;whiteSpace=wrap;html=1;" vertex="1" parent="ZSTiKY09LtlX5tefn-ia-5">
          <mxGeometry y="60" width="140" height="30" as="geometry" />
        </mxCell>
        <mxCell id="ZSTiKY09LtlX5tefn-ia-9" value="MODULO = 10 ^ 9 + 7" style="rounded=0;whiteSpace=wrap;html=1;" vertex="1" parent="1">
          <mxGeometry x="100" y="140" width="120" height="60" as="geometry" />
        </mxCell>
        <mxCell id="ZSTiKY09LtlX5tefn-ia-10" value="res += DP(n - 1, k, target - i)" style="whiteSpace=wrap;html=1;" vertex="1" parent="1">
          <mxGeometry x="90" y="850" width="170" height="70" as="geometry" />
        </mxCell>
        <mxCell id="ZSTiKY09LtlX5tefn-ia-11" value="dp[n][target]이 있는가?" style="rhombus;whiteSpace=wrap;html=1;" vertex="1" parent="1">
          <mxGeometry x="80" y="610" width="180" height="100" as="geometry" />
        </mxCell>
        <mxCell id="ZSTiKY09LtlX5tefn-ia-12" value="return dp[n][target]" style="rounded=0;whiteSpace=wrap;html=1;" vertex="1" parent="1">
          <mxGeometry x="300" y="630" width="120" height="60" as="geometry" />
        </mxCell>
        <mxCell id="ZSTiKY09LtlX5tefn-ia-13" value="1부터 k까지 반복" style="ellipse;whiteSpace=wrap;html=1;" vertex="1" parent="1">
          <mxGeometry x="115" y="750" width="120" height="80" as="geometry" />
        </mxCell>
        <mxCell id="ZSTiKY09LtlX5tefn-ia-14" value="n == 0 인가 또는 target이 0보다 작은가" style="rhombus;whiteSpace=wrap;html=1;" vertex="1" parent="1">
          <mxGeometry x="80" y="490" width="180" height="100" as="geometry" />
        </mxCell>
        <mxCell id="ZSTiKY09LtlX5tefn-ia-15" value="return 0" style="rounded=0;whiteSpace=wrap;html=1;" vertex="1" parent="1">
          <mxGeometry x="295" y="510" width="120" height="60" as="geometry" />
        </mxCell>
        <mxCell id="ZSTiKY09LtlX5tefn-ia-16" value="return dp[n][target]" style="rounded=0;whiteSpace=wrap;html=1;" vertex="1" parent="1">
          <mxGeometry x="115" y="1020" width="120" height="60" as="geometry" />
        </mxCell>
        <mxCell id="ZSTiKY09LtlX5tefn-ia-17" value="dp[n][target] = res" style="rounded=0;whiteSpace=wrap;html=1;" vertex="1" parent="1">
          <mxGeometry x="115" y="940" width="120" height="60" as="geometry" />
        </mxCell>
      </root>
    </mxGraphModel>
  </diagram>
</mxfile>
